<svg width="33" height="32" viewBox="0 0 33 32" fill="none" xmlns="http://www.w3.org/2000/svg">
<g clip-path="url(#clip0_2498_17945)">
<path d="M32.0825 9.83086L30.2075 8.58086C30.0535 8.47817 29.8726 8.42342 29.6875 8.42342H24.9332V6.36523C24.9332 6.08042 24.8038 5.81105 24.5814 5.63317L21.4564 3.13317C21.2901 3.00017 21.0836 2.92773 20.8707 2.92773H12.1245C11.9116 2.92773 11.7051 3.00017 11.5388 3.13317L8.41381 5.63317C8.19144 5.81105 8.062 6.08042 8.062 6.36523V8.42342H3.3125C3.12744 8.42342 2.9465 8.47817 2.7925 8.58086L0.9175 9.83086C0.656625 10.0047 0.5 10.2975 0.5 10.6109V28.1343C0.5 28.652 0.91975 29.0718 1.4375 29.0718H31.5625C32.0802 29.0718 32.5 28.652 32.5 28.1343V10.6109C32.5 10.2975 32.3434 10.0047 32.0825 9.83086ZM2.375 11.1127L3.59637 10.2984H8.062V27.1968H2.375V11.1127ZM18.1776 27.1967H14.8176V24.3288H18.1776V27.1967ZM23.0582 27.1967H20.0526V23.3913C20.0526 22.8735 19.6329 22.4538 19.1151 22.4538H13.8801C13.3623 22.4538 12.9426 22.8735 12.9426 23.3913V27.1967H9.937V6.8158L12.4534 4.80273H20.5419L23.0583 6.8158L23.0582 27.1967ZM30.625 27.1967H24.9332V10.2984H29.4037L30.625 11.1127V27.1967Z" fill="#2541B2"/>
<path d="M14.2345 10.8158H15.56V12.1413C15.56 12.659 15.9798 13.0788 16.4975 13.0788C17.0153 13.0788 17.435 12.659 17.435 12.1413V10.8158H18.7606C19.2783 10.8158 19.6981 10.396 19.6981 9.8783C19.6981 9.36055 19.2783 8.9408 18.7606 8.9408H17.435V7.61523C17.435 7.09748 17.0153 6.67773 16.4975 6.67773C15.9798 6.67773 15.56 7.09748 15.56 7.61523V8.9408H14.2345C13.7168 8.9408 13.297 9.36055 13.297 9.8783C13.297 10.396 13.7168 10.8158 14.2345 10.8158Z" fill="#2541B2"/>
<path d="M5.18725 12.1734C4.6695 12.1734 4.24975 12.5932 4.24975 13.1109V13.5594C4.24975 14.0772 4.6695 14.4969 5.18725 14.4969C5.705 14.4969 6.12475 14.0772 6.12475 13.5594V13.1109C6.12475 12.5932 5.705 12.1734 5.18725 12.1734Z" fill="#2541B2"/>
<path d="M5.18725 16.9412C4.6695 16.9412 4.24975 17.361 4.24975 17.8787V18.3272C4.24975 18.845 4.6695 19.2647 5.18725 19.2647C5.705 19.2647 6.12475 18.845 6.12475 18.3272V17.8787C6.12475 17.361 5.705 16.9412 5.18725 16.9412Z" fill="#2541B2"/>
<path d="M5.18725 21.7057C4.6695 21.7057 4.24975 22.1254 4.24975 22.6432V23.0917C4.24975 23.6094 4.6695 24.0292 5.18725 24.0292C5.705 24.0292 6.12475 23.6094 6.12475 23.0917V22.6432C6.12475 22.1254 5.705 21.7057 5.18725 21.7057Z" fill="#2541B2"/>
<path d="M12.8252 14.9538C12.3074 14.9538 11.8877 15.3735 11.8877 15.8913C11.8877 16.409 12.3074 16.8288 12.8252 16.8288H20.17C20.6877 16.8288 21.1075 16.409 21.1075 15.8913C21.1075 15.3735 20.6877 14.9538 20.17 14.9538H12.8252Z" fill="#2541B2"/>
<path d="M20.17 18.7038H12.8252C12.3074 18.7038 11.8877 19.1235 11.8877 19.6413C11.8877 20.159 12.3074 20.5788 12.8252 20.5788H20.17C20.6877 20.5788 21.1075 20.159 21.1075 19.6413C21.1075 19.1235 20.6877 18.7038 20.17 18.7038Z" fill="#2541B2"/>
<path d="M27.8103 12.1734C27.2926 12.1734 26.8728 12.5932 26.8728 13.1109V13.5594C26.8728 14.0772 27.2926 14.4969 27.8103 14.4969C28.3281 14.4969 28.7478 14.0772 28.7478 13.5594V13.1109C28.7478 12.5932 28.3281 12.1734 27.8103 12.1734Z" fill="#2541B2"/>
<path d="M27.8103 16.9412C27.2926 16.9412 26.8728 17.361 26.8728 17.8787V18.3272C26.8728 18.845 27.2926 19.2647 27.8103 19.2647C28.3281 19.2647 28.7478 18.845 28.7478 18.3272V17.8787C28.7478 17.361 28.3281 16.9412 27.8103 16.9412Z" fill="#2541B2"/>
<path d="M27.8103 21.7057C27.2926 21.7057 26.8728 22.1254 26.8728 22.6432V23.0917C26.8728 23.6094 27.2926 24.0292 27.8103 24.0292C28.3281 24.0292 28.7478 23.6094 28.7478 23.0917V22.6432C28.7478 22.1254 28.3281 21.7057 27.8103 21.7057Z" fill="#2541B2"/>
</g>
<defs>
<clipPath id="clip0_2498_17945">
<rect width="32" height="32" fill="white" transform="translate(0.5)"/>
</clipPath>
</defs>
</svg>
