<svg width="33" height="32" viewBox="0 0 33 32" fill="none" xmlns="http://www.w3.org/2000/svg">
<g clip-path="url(#clip0_2498_17939)">
<path d="M23.5 14C23.2348 14 22.9804 13.8946 22.7929 13.7071C22.6054 13.5196 22.5 13.2652 22.5 13V5C22.5 4.73478 22.3946 4.48043 22.2071 4.29289C22.0196 4.10536 21.7652 4 21.5 4H17.5C17.2348 4 16.9804 3.89464 16.7929 3.70711C16.6054 3.51957 16.5 3.26522 16.5 3C16.5 2.73478 16.6054 2.48043 16.7929 2.29289C16.9804 2.10536 17.2348 2 17.5 2H21.5C22.2956 2 23.0587 2.31607 23.6213 2.87868C24.1839 3.44129 24.5 4.20435 24.5 5V13C24.5 13.2652 24.3946 13.5196 24.2071 13.7071C24.0196 13.8946 23.7652 14 23.5 14Z" fill="#2541B2"/>
<path d="M9.21 8.29C9.11704 8.19627 9.00644 8.12188 8.88458 8.07111C8.76272 8.02034 8.63201 7.9942 8.5 7.9942C8.36799 7.9942 8.23728 8.02034 8.11542 8.07111C7.99356 8.12188 7.88296 8.19627 7.79 8.29L6.5 9.59L6.21 9.29C6.0217 9.1017 5.7663 8.99591 5.5 8.99591C5.2337 8.99591 4.9783 9.1017 4.79 9.29C4.6017 9.4783 4.49591 9.7337 4.49591 10C4.49591 10.2663 4.6017 10.5217 4.79 10.71L5.79 11.71C5.88296 11.8037 5.99356 11.8781 6.11542 11.9289C6.23728 11.9797 6.36799 12.0058 6.5 12.0058C6.63201 12.0058 6.76272 11.9797 6.88458 11.9289C7.00644 11.8781 7.11704 11.8037 7.21 11.71L9.21 9.71C9.30373 9.61704 9.37812 9.50644 9.42889 9.38458C9.47966 9.26272 9.5058 9.13201 9.5058 9C9.5058 8.86799 9.47966 8.73728 9.42889 8.61542C9.37812 8.49356 9.30373 8.38296 9.21 8.29Z" fill="#2541B2"/>
<path d="M11.5 10C11.5 10.2652 11.6054 10.5196 11.7929 10.7071C11.9804 10.8946 12.2348 11 12.5 11H19.5C19.7652 11 20.0196 10.8946 20.2071 10.7071C20.3946 10.5196 20.5 10.2652 20.5 10C20.5 9.73478 20.3946 9.48043 20.2071 9.29289C20.0196 9.10536 19.7652 9 19.5 9H12.5C12.2348 9 11.9804 9.10536 11.7929 9.29289C11.6054 9.48043 11.5 9.73478 11.5 10Z" fill="#2541B2"/>
<path d="M9.21 14.29C9.11704 14.1963 9.00644 14.1219 8.88458 14.0711C8.76272 14.0203 8.63201 13.9942 8.5 13.9942C8.36799 13.9942 8.23728 14.0203 8.11542 14.0711C7.99356 14.1219 7.88296 14.1963 7.79 14.29L6.5 15.59L6.21 15.29C6.11676 15.1968 6.00607 15.1228 5.88425 15.0723C5.76243 15.0219 5.63186 14.9959 5.5 14.9959C5.36814 14.9959 5.23757 15.0219 5.11575 15.0723C4.99393 15.1228 4.88324 15.1968 4.79 15.29C4.69676 15.3832 4.6228 15.4939 4.57234 15.6158C4.52188 15.7376 4.49591 15.8681 4.49591 16C4.49591 16.2663 4.6017 16.5217 4.79 16.71L5.79 17.71C5.88296 17.8037 5.99356 17.8781 6.11542 17.9289C6.23728 17.9797 6.36799 18.0058 6.5 18.0058C6.63201 18.0058 6.76272 17.9797 6.88458 17.9289C7.00644 17.8781 7.11704 17.8037 7.21 17.71L9.21 15.71C9.30373 15.617 9.37812 15.5064 9.42889 15.3846C9.47966 15.2627 9.5058 15.132 9.5058 15C9.5058 14.868 9.47966 14.7373 9.42889 14.6154C9.37812 14.4936 9.30373 14.383 9.21 14.29Z" fill="#2541B2"/>
<path d="M19.5 15H12.5C12.2348 15 11.9804 15.1054 11.7929 15.2929C11.6054 15.4804 11.5 15.7348 11.5 16C11.5 16.2652 11.6054 16.5196 11.7929 16.7071C11.9804 16.8946 12.2348 17 12.5 17H19.5C19.7652 17 20.0196 16.8946 20.2071 16.7071C20.3946 16.5196 20.5 16.2652 20.5 16C20.5 15.7348 20.3946 15.4804 20.2071 15.2929C20.0196 15.1054 19.7652 15 19.5 15Z" fill="#2541B2"/>
<path d="M7.79 20.29L6.5 21.59L6.21 21.29C6.0217 21.1017 5.7663 20.9959 5.5 20.9959C5.2337 20.9959 4.9783 21.1017 4.79 21.29C4.6017 21.4783 4.49591 21.7337 4.49591 22C4.49591 22.2663 4.6017 22.5217 4.79 22.71C5.85 23.77 5.98 24 6.5 24C7.02 24 7.07 23.85 9.21 21.71C9.3983 21.5217 9.50409 21.2663 9.50409 21C9.50409 20.7337 9.3983 20.4783 9.21 20.29C9.0217 20.1017 8.7663 19.9959 8.5 19.9959C8.2337 19.9959 7.9783 20.1017 7.79 20.29Z" fill="#2541B2"/>
<path d="M19.5 21H12.5C12.2348 21 11.9804 21.1054 11.7929 21.2929C11.6054 21.4804 11.5 21.7348 11.5 22C11.5 22.2652 11.6054 22.5196 11.7929 22.7071C11.9804 22.8946 12.2348 23 12.5 23H19.5C19.7652 23 20.0196 22.8946 20.2071 22.7071C20.3946 22.5196 20.5 22.2652 20.5 22C20.5 21.7348 20.3946 21.4804 20.2071 21.2929C20.0196 21.1054 19.7652 21 19.5 21Z" fill="#2541B2"/>
<path d="M22.2 28H3.5C3.23478 28 2.98043 27.8946 2.79289 27.7071C2.60536 27.5196 2.5 27.2652 2.5 27V5C2.5 4.73478 2.60536 4.48043 2.79289 4.29289C2.98043 4.10536 3.23478 4 3.5 4H6.5C6.5 4.53043 6.71071 5.03914 7.08579 5.41421C7.46086 5.78929 7.96957 6 8.5 6H16.5C17.0304 6 17.5391 5.78929 17.9142 5.41421C18.2893 5.03914 18.5 4.53043 18.5 4V2C18.5 1.46957 18.2893 0.960859 17.9142 0.585786C17.5391 0.210714 17.0304 0 16.5 0H8.5C7.96957 0 7.46086 0.210714 7.08579 0.585786C6.71071 0.960859 6.5 1.46957 6.5 2H3.5C2.70435 2 1.94129 2.31607 1.37868 2.87868C0.81607 3.44129 0.5 4.20435 0.5 5V27C0.5 27.7957 0.81607 28.5587 1.37868 29.1213C1.94129 29.6839 2.70435 30 3.5 30H22.2C22.4652 30 22.7196 29.8946 22.9071 29.7071C23.0946 29.5196 23.2 29.2652 23.2 29C23.2 28.7348 23.0946 28.4804 22.9071 28.2929C22.7196 28.1054 22.4652 28 22.2 28ZM8.5 2H16.5V4H8.5V2Z" fill="#2541B2"/>
<path d="M24.83 26.33C24.29 26.33 24.16 26.08 22.83 24.71C22.6417 24.5217 22.5359 24.2663 22.5359 24C22.5359 23.7337 22.6417 23.4783 22.83 23.29C23.0183 23.1017 23.2737 22.9959 23.54 22.9959C23.8063 22.9959 24.0617 23.1017 24.25 23.29L24.87 23.92L26.87 21.92C26.963 21.8263 27.0736 21.7519 27.1954 21.7011C27.3173 21.6503 27.448 21.6242 27.58 21.6242C27.712 21.6242 27.8427 21.6503 27.9646 21.7011C28.0864 21.7519 28.197 21.8263 28.29 21.92C28.4762 22.1074 28.5808 22.3608 28.5808 22.625C28.5808 22.8892 28.4762 23.1426 28.29 23.33L25.5 26C25.3277 26.1924 25.0876 26.3107 24.83 26.33Z" fill="#2541B2"/>
<path d="M25.18 32C23.2264 31.3487 21.5286 30.0968 20.3289 28.4231C19.1293 26.7493 18.4892 24.7393 18.5 22.68V20C18.5006 19.8153 18.5522 19.6344 18.6493 19.4773C18.7464 19.3202 18.8851 19.1931 19.05 19.11L25.05 16.11C25.1896 16.0397 25.3437 16.003 25.5 16.003C25.6563 16.003 25.8104 16.0397 25.95 16.11L31.95 19.11C32.1149 19.1931 32.2536 19.3202 32.3507 19.4773C32.4478 19.6344 32.4994 19.8153 32.5 20V22.68C32.5108 24.7393 31.8707 26.7493 30.6711 28.4231C29.4714 30.0968 27.7736 31.3487 25.82 32C25.6124 32.0701 25.3876 32.0701 25.18 32ZM20.5 20.62V22.68C20.4999 24.2542 20.9779 25.7912 21.8708 27.0877C22.7637 28.3841 24.0293 29.3788 25.5 29.94C26.9707 29.3788 28.2363 28.3841 29.1292 27.0877C30.0221 25.7912 30.5001 24.2542 30.5 22.68V20.62L25.5 18.12L20.5 20.62Z" fill="#2541B2"/>
</g>
<defs>
<clipPath id="clip0_2498_17939">
<rect width="32" height="32" fill="white" transform="translate(0.5)"/>
</clipPath>
</defs>
</svg>
