<svg width="32" height="32" viewBox="0 0 32 32" fill="none" xmlns="http://www.w3.org/2000/svg">
<g clip-path="url(#clip0_2497_17933)">
<path d="M15.33 10.3309C14.78 10.3309 14.65 10.0609 13.33 8.71088C13.1417 8.52257 13.0359 8.26718 13.0359 8.00088C13.0359 7.86902 13.0619 7.73845 13.1123 7.61663C13.1628 7.49481 13.2368 7.38412 13.33 7.29088C13.4232 7.19764 13.5339 7.12368 13.6558 7.07322C13.7776 7.02276 13.9081 6.99679 14.04 6.99679C14.3063 6.99679 14.5617 7.10257 14.75 7.29088L15.37 7.92088L17.37 5.92088C17.463 5.82715 17.5736 5.75276 17.6954 5.70199C17.8173 5.65122 17.948 5.62508 18.08 5.62508C18.212 5.62508 18.3427 5.65122 18.4646 5.70199C18.5864 5.75276 18.697 5.82715 18.79 5.92088C18.9763 6.10824 19.0808 6.36169 19.0808 6.62588C19.0808 6.89006 18.9763 7.14352 18.79 7.33088L16 10.0009C15.8277 10.1933 15.5876 10.3115 15.33 10.3309Z" fill="white"/>
<path d="M15.68 16.0009C13.7264 15.3496 12.0286 14.0977 10.8289 12.4239C9.62926 10.7502 8.98915 8.74014 9 6.68088V4.00088C9.00056 3.81621 9.05224 3.6353 9.14932 3.47821C9.2464 3.32112 9.38509 3.19398 9.55 3.11088L15.55 0.110878C15.6896 0.0405434 15.8437 0.00390625 16 0.00390625C16.1563 0.00390625 16.3104 0.0405434 16.45 0.110878L22.45 3.11088C22.6149 3.19398 22.7536 3.32112 22.8507 3.47821C22.9478 3.6353 22.9994 3.81621 23 4.00088V6.68088C23.0108 8.74014 22.3707 10.7502 21.1711 12.4239C19.9714 14.0977 18.2736 15.3496 16.32 16.0009C16.1124 16.071 15.8876 16.071 15.68 16.0009ZM11 4.62088V6.68088C10.9999 8.25504 11.4779 9.79212 12.3708 11.0886C13.2637 12.385 14.5293 13.3797 16 13.9409C17.4707 13.3797 18.7363 12.385 19.6292 11.0886C20.5221 9.79212 21.0001 8.25504 21 6.68088V4.62088L16 2.12088L11 4.62088Z" fill="white"/>
<path d="M30 10.0009C28.9391 10.0009 27.9217 10.4223 27.1716 11.1725C26.4214 11.9226 26 12.94 26 14.0009V17.5909C25.4595 17.0754 24.7557 16.7652 24.0106 16.7141C23.2654 16.6629 22.5259 16.8741 21.92 17.3109C17.74 20.4409 16.92 20.8209 16 22.4209C15.05 20.8309 14.31 20.4809 10.08 17.3109C9.47708 16.8664 8.73588 16.6506 7.9886 16.7019C7.24132 16.7532 6.53655 17.0682 6 17.5909V14.0009C6 12.94 5.57857 11.9226 4.82843 11.1725C4.07828 10.4223 3.06087 10.0009 2 10.0009C1.46957 10.0009 0.960859 10.2116 0.585786 10.5867C0.210714 10.9617 0 11.4704 0 12.0009V20.7809C0.000269935 22.454 0.599809 24.0717 1.69 25.3409C6.39 30.8209 6 30.1609 6 31.0009C6 31.2661 6.10536 31.5204 6.29289 31.708C6.48043 31.8955 6.73478 32.0009 7 32.0009C7.26522 32.0009 7.51957 31.8955 7.70711 31.708C7.89464 31.5204 8 31.2661 8 31.0009C8.05256 30.1991 7.79477 29.4078 7.28 28.7909L3.2 24.0009C2.43663 23.1004 2.01213 21.9613 2 20.7809V12.0009C2.53043 12.0009 3.03914 12.2116 3.41421 12.5867C3.78929 12.9617 4 13.4704 4 14.0009V18.5609C4.00037 19.1601 4.13536 19.7515 4.39499 20.2916C4.65462 20.8316 5.03225 21.3064 5.5 21.6809L9.38 24.7809C9.4807 24.8759 9.60004 24.949 9.73046 24.9956C9.86089 25.0421 9.99956 25.061 10.1377 25.0511C10.2758 25.0413 10.4104 25.0028 10.5329 24.9382C10.6553 24.8736 10.7631 24.7843 10.8492 24.6759C10.9354 24.5675 10.9981 24.4424 11.0334 24.3085C11.0687 24.1746 11.0758 24.0348 11.0542 23.898C11.0327 23.7613 10.983 23.6304 10.9082 23.5139C10.8335 23.3973 10.7353 23.2975 10.62 23.2209L7.47 20.7009C7.35071 20.6004 7.25291 20.4768 7.18247 20.3377C7.11202 20.1985 7.07037 20.0465 7.06 19.8909C7.04318 19.6724 7.08966 19.4538 7.19388 19.2611C7.29811 19.0683 7.45565 18.9097 7.64767 18.8042C7.83968 18.6987 8.05804 18.6508 8.27659 18.6662C8.49514 18.6815 8.70463 18.7595 8.88 18.8909L13 22.0009C13.621 22.4666 14.125 23.0705 14.4721 23.7648C14.8193 24.4591 15 25.2247 15 26.0009V31.0009C15 31.2661 15.1054 31.5204 15.2929 31.708C15.4804 31.8955 15.7348 32.0009 16 32.0009C16.2652 32.0009 16.5196 31.8955 16.7071 31.708C16.8946 31.5204 17 31.2661 17 31.0009V26.0009C17 25.2247 17.1807 24.4591 17.5279 23.7648C17.875 23.0705 18.379 22.4666 19 22.0009L23.13 18.9109C23.3044 18.7813 23.5126 18.7048 23.7294 18.6904C23.9463 18.6761 24.1626 18.7247 24.3526 18.8302C24.5426 18.9357 24.6981 19.0938 24.8005 19.2855C24.9029 19.4772 24.9479 19.6943 24.93 19.9109C24.9211 20.0718 24.8781 20.2289 24.804 20.372C24.7299 20.515 24.6263 20.6408 24.5 20.7409L21.37 23.2409C21.1631 23.408 21.0311 23.6504 21.003 23.9148C20.9748 24.1792 21.0529 24.444 21.22 24.6509C21.3871 24.8577 21.6295 24.9898 21.8939 25.0179C22.1584 25.046 22.4231 24.968 22.63 24.8009L26.49 21.7009C26.9622 21.3253 27.3433 20.8477 27.6048 20.3039C27.8663 19.7602 28.0014 19.1643 28 18.5609V14.0009C28 13.4704 28.2107 12.9617 28.5858 12.5867C28.9609 12.2116 29.4696 12.0009 30 12.0009V15.0009C30 15.2661 30.1054 15.5204 30.2929 15.708C30.4804 15.8955 30.7348 16.0009 31 16.0009C31.2652 16.0009 31.5196 15.8955 31.7071 15.708C31.8946 15.5204 32 15.2661 32 15.0009V12.0009C32 11.4704 31.7893 10.9617 31.4142 10.5867C31.0391 10.2116 30.5304 10.0009 30 10.0009Z" fill="white"/>
<path d="M31 18.0009C30.7348 18.0009 30.4804 18.1062 30.2929 18.2938C30.1054 18.4813 30 18.7357 30 19.0009C30 23.3609 30.16 22.4609 24.72 28.7909C24.2553 29.3343 23.9999 30.0258 24 30.7409V31.0009C24 31.2661 24.1054 31.5204 24.2929 31.708C24.4804 31.8955 24.7348 32.0009 25 32.0009C25.2652 32.0009 25.5196 31.8955 25.7071 31.708C25.8946 31.5204 26 31.2661 26 31.0009C25.9754 30.8408 25.9841 30.6775 26.0254 30.5209C26.0666 30.3644 26.1397 30.218 26.24 30.0909L30.32 25.3409C32.22 23.1109 32 21.0009 32 19.0009C32 18.7357 31.8946 18.4813 31.7071 18.2938C31.5196 18.1062 31.2652 18.0009 31 18.0009Z" fill="white"/>
</g>
<defs>
<clipPath id="clip0_2497_17933">
<rect width="32" height="32" fill="white"/>
</clipPath>
</defs>
</svg>
